<?xml version="1.0" standalone="no"?>
<!DOCTYPE svg PUBLIC "-//W3C//DTD SVG 20010904//EN"
 "http://www.w3.org/TR/2001/REC-SVG-20010904/DTD/svg10.dtd">
<svg version="1.0" xmlns="http://www.w3.org/2000/svg"
 width="715.000000pt" height="349.000000pt" viewBox="0 0 715.000000 349.000000"
 preserveAspectRatio="xMidYMid meet">

<g transform="translate(0.000000,349.000000) scale(0.100000,-0.100000)"
fill="#000000" stroke="none">
<path d="M1565 3438 c-2 -13 -6 -34 -7 -48 -2 -20 -8 -24 -26 -22 -23 2 -76
-30 -66 -41 3 -3 1 -8 -5 -12 -6 -3 -11 1 -11 9 0 10 -9 16 -25 16 -24 0 -76
-47 -102 -93 -7 -12 -13 -16 -14 -9 -1 6 -3 17 -4 22 -1 6 -3 21 -4 35 -1 23
-31 38 -31 16 0 -5 -8 -12 -18 -15 -29 -9 -221 -204 -254 -257 -16 -27 -31
-49 -34 -49 -2 0 -1 21 2 48 l6 47 -63 -66 c-110 -115 -156 -194 -191 -329
-30 -114 -32 -402 -5 -555 28 -157 28 -145 -5 -145 -45 0 -86 -27 -110 -73
-18 -34 -23 -58 -23 -127 0 -78 3 -90 32 -140 52 -88 119 -151 210 -196 44
-22 61 -25 98 -20 48 8 47 9 119 -75 38 -45 119 -112 184 -155 28 -18 52 -38
52 -42 0 -5 -34 -12 -76 -15 -100 -7 -207 -59 -279 -133 -82 -85 -84 -91 -40
-163 37 -59 73 -83 62 -41 -3 11 -2 18 3 15 4 -3 11 2 14 11 3 9 2 12 -5 8 -6
-3 -5 3 3 15 7 12 18 19 25 17 7 -3 10 1 7 9 -7 18 22 49 37 39 8 -4 9 -3 5 4
-11 18 4 37 16 21 7 -10 8 -8 3 8 -4 16 -1 23 14 28 12 3 25 4 31 0 6 -4 7 1
3 11 -5 14 -3 16 11 11 10 -4 15 -3 11 3 -8 13 76 49 145 62 38 7 55 7 58 -1
5 -16 73 -81 84 -81 5 0 6 -5 2 -12 -4 -7 -3 -8 4 -4 6 4 22 0 35 -8 13 -9 48
-19 78 -22 30 -3 58 -8 62 -11 4 -3 19 3 33 12 13 9 30 13 36 9 7 -4 8 -3 4 4
-4 7 -1 12 8 12 8 0 16 -3 19 -7 2 -5 2 -2 0 6 -2 9 4 12 21 7 14 -3 28 -2 31
4 4 6 -1 7 -12 3 -17 -6 -17 -5 1 15 10 12 23 19 28 16 4 -3 7 -2 6 3 -3 10
30 73 38 73 4 0 4 -10 1 -22 -5 -21 -5 -21 7 -6 45 60 316 -95 300 -171 -4
-20 -3 -22 5 -11 12 17 19 12 24 -19 2 -12 8 -26 14 -29 5 -4 15 -16 21 -27
l11 -20 7 20 c4 11 20 36 36 56 15 20 28 41 28 47 0 5 7 15 15 22 8 7 15 16
15 21 0 4 -23 36 -51 71 -82 103 -137 127 -349 152 -8 0 3 12 25 25 68 42 168
130 215 191 41 54 48 59 85 59 25 1 59 12 91 30 51 30 164 128 164 143 0 5 12
26 26 48 20 30 28 57 31 108 7 90 -10 147 -57 194 -32 33 -44 38 -82 38 l-45
0 13 63 c63 314 55 627 -21 777 -59 117 -198 276 -216 248 -5 -7 -9 -17 -9
-23 0 -5 -42 31 -92 81 -137 134 -217 180 -206 119 7 -34 -3 -31 -29 9 -14 22
-42 43 -76 59 -40 18 -61 36 -83 70 -33 52 -42 57 -49 25z m460 -674 c82 -40
119 -133 132 -328 l6 -88 -24 8 c-13 5 -286 9 -607 9 l-582 0 0 83 c0 62 6
102 26 161 50 150 124 187 330 162 57 -7 128 -19 157 -27 62 -17 136 -18 197
-2 205 50 298 56 365 22z m-922 -452 c-14 -2 -20 -8 -16 -18 6 -17 -1 -18 -30
-3 -21 10 -22 10 -2 -6 16 -13 18 -19 7 -35 -16 -26 -15 -38 4 -57 8 -9 13
-22 9 -31 -3 -8 -1 -20 5 -27 8 -9 8 -15 0 -20 -5 -3 -10 -1 -10 4 0 6 -6 11
-12 11 -18 -1 31 -40 49 -40 8 0 11 -4 8 -10 -3 -5 1 -10 9 -10 9 0 16 -4 16
-9 0 -6 -9 -8 -19 -6 -15 3 -19 -1 -16 -16 2 -10 -1 -19 -6 -19 -6 0 -7 -5 -4
-10 9 -14 38 9 32 24 -3 6 6 12 20 12 22 2 23 1 6 -11 -10 -8 -14 -17 -9 -22
5 -4 11 -2 13 5 3 6 9 12 15 12 6 0 3 -9 -6 -19 -17 -19 -17 -20 14 -36 26
-13 34 -14 48 -4 14 11 15 11 5 -1 -17 -18 -18 -84 -1 -74 7 5 8 3 2 -7 -5 -8
-9 -18 -9 -24 0 -14 -124 -18 -140 -5 -8 7 -18 9 -23 6 -15 -9 -22 -46 -9 -46
7 -1 1 -7 -13 -16 -25 -15 -25 -15 -1 -8 16 4 21 3 17 -5 -4 -6 -1 -11 6 -11
10 0 9 -3 -1 -9 -9 -6 -22 -6 -34 1 -15 8 -18 7 -12 -3 6 -9 0 -11 -25 -5 -19
3 -38 12 -42 19 -4 6 -8 9 -8 4 0 -21 -51 30 -65 66 -20 53 -18 374 2 370 7
-2 10 3 7 11 -3 7 2 19 11 26 13 11 14 10 8 -6 -6 -17 -5 -17 10 -6 8 8 13 20
10 28 -7 20 51 42 111 42 26 0 50 3 53 5 3 3 12 3 21 -1 14 -6 13 -7 -5 -10z
m-7 -63 c-14 -11 -26 -25 -26 -31 0 -6 6 -5 16 3 22 18 125 12 144 -8 8 -9 9
-13 3 -9 -10 5 -13 -5 -13 -38 0 -29 -4 -46 -12 -46 -6 0 -19 -7 -29 -16 -13
-12 -22 -13 -37 -5 -12 6 -28 8 -36 5 -9 -3 -16 -1 -16 6 0 6 5 8 13 4 6 -4 4
2 -6 13 -10 12 -15 27 -11 37 4 10 -1 25 -11 36 -16 18 -17 23 -5 45 7 14 22
25 33 25 17 0 17 -2 -7 -21z m889 -39 c24 -27 24 -79 0 -96 -44 -32 -105 -5
-105 48 0 58 68 89 105 48z m-690 -102 l40 -3 0 -65 0 -65 -41 -3 c-30 -2 -45
2 -59 18 -10 11 -25 20 -34 20 -12 0 -13 2 -4 8 7 4 11 18 9 29 -3 12 1 24 10
27 7 3 11 12 8 21 -5 12 -2 14 12 8 17 -6 18 -5 4 13 -13 17 -13 18 0 7 8 -6
33 -13 55 -15z m569 -13 c23 -24 28 -52 14 -82 -26 -55 -118 -34 -118 27 0 56
67 92 104 55z m241 -10 c30 -29 31 -45 4 -79 -36 -46 -102 -27 -114 33 -5 28
35 71 65 71 12 0 32 -11 45 -25z m-129 -103 c24 -16 34 -50 23 -79 -12 -32
-26 -43 -56 -43 -56 0 -85 83 -41 114 24 17 56 20 74 8z m456 -13 c59 -26 82
-189 40 -279 -40 -87 -186 -210 -249 -210 l-33 0 28 58 c16 31 32 74 36 94 8
44 82 161 97 153 19 -12 9 -79 -21 -132 -37 -64 -37 -69 -5 -46 58 41 85 146
51 198 -15 23 -15 25 11 50 15 14 31 25 35 25 5 0 8 5 8 10 0 26 -45 5 -87
-40 -25 -28 -48 -49 -50 -47 -3 4 23 140 32 165 5 15 75 16 107 1z m-1660 -22
c4 -7 13 -37 20 -67 6 -30 15 -57 19 -60 10 -8 21 -50 13 -50 -4 0 -36 27 -71
61 -58 56 -83 69 -85 44 0 -6 11 -16 26 -23 36 -18 40 -32 21 -68 -29 -56 -9
-140 44 -188 33 -30 34 -14 1 49 -30 57 -35 84 -21 119 6 16 12 12 39 -30 18
-27 50 -73 72 -103 22 -30 40 -60 40 -67 0 -7 11 -30 25 -50 14 -20 25 -41 25
-45 0 -5 -19 -9 -42 -9 -64 1 -131 41 -216 129 -41 43 -57 69 -72 119 -25 79
-25 85 1 167 17 56 25 69 52 81 35 15 97 10 109 -9z m810 -88 c25 -14 65 -58
73 -81 3 -9 23 -27 43 -39 35 -22 46 -23 232 -23 213 0 246 7 296 61 l24 26 0
-43 c0 -56 -54 -213 -94 -270 -38 -56 -128 -164 -140 -169 -5 -2 -18 -13 -30
-25 -91 -91 -308 -186 -425 -186 -106 0 -236 52 -361 143 -70 52 -200 177
-200 192 0 7 -7 18 -15 25 -26 22 -83 137 -104 212 -26 94 -27 106 -3 86 51
-45 82 -52 250 -56 249 -6 247 -7 353 116 37 44 63 51 101 31z m-502 -9 c0 -5
-4 -10 -10 -10 -5 0 -10 5 -10 10 0 6 5 10 10 10 6 0 10 -4 10 -10z m157 -16
c-3 -3 -12 -4 -19 -1 -8 3 -5 6 6 6 11 1 17 -2 13 -5z m135 -718 c72 -38 237
-43 344 -11 26 8 50 12 52 10 7 -6 -21 -45 -57 -82 -62 -62 -217 -71 -294 -16
-37 26 -99 113 -81 113 5 0 21 -6 36 -14z"/>
<path d="M998 2303 c7 -3 16 -2 19 1 4 3 -2 6 -13 5 -11 0 -14 -3 -6 -6z"/>
<path d="M940 2290 c-18 -12 -2 -12 25 0 13 6 15 9 5 9 -8 0 -22 -4 -30 -9z"/>
<path d="M1051 2183 c-1 -6 -4 -20 -7 -30 -5 -17 -5 -17 6 0 6 10 9 23 6 30
-3 9 -5 9 -5 0z"/>
<path d="M1010 2130 c-9 -6 -10 -10 -3 -10 6 0 15 5 18 10 8 12 4 12 -15 0z"/>
<path d="M1114 1995 c-5 -11 -11 -12 -25 -4 -16 8 -19 6 -19 -15 0 -14 4 -27
9 -31 6 -3 8 4 6 15 -2 11 0 20 6 20 5 0 9 -6 9 -12 0 -7 5 -5 11 5 6 9 14 15
20 12 5 -4 9 1 9 9 0 20 -19 21 -26 1z"/>
<path d="M1037 1946 c25 -21 26 -25 13 -42 -8 -10 -10 -15 -3 -11 6 4 13 1 16
-5 2 -8 8 -9 13 -4 5 5 4 11 -4 13 -9 4 -10 9 -2 18 7 9 6 16 -5 25 -8 7 -13
15 -11 19 3 4 -7 8 -20 9 l-25 2 28 -24z"/>
<path d="M952 1870 c0 -14 2 -19 5 -12 2 6 2 18 0 25 -3 6 -5 1 -5 -13z"/>
<path d="M1706 1663 c-25 -25 -227 -31 -278 -9 -11 5 -18 4 -18 -3 0 -6 26
-18 58 -27 31 -9 61 -20 67 -25 12 -12 51 -11 73 1 9 6 38 19 65 30 26 10 47
24 47 30 0 12 -4 13 -14 3z"/>
<path d="M1335 1480 c-8 -13 33 -37 85 -49 68 -16 274 -14 314 3 19 8 37 19
40 25 15 23 -6 28 -66 15 -83 -18 -208 -17 -283 1 -72 17 -82 18 -90 5z"/>
<path d="M1258 1053 c7 -3 16 -2 19 1 4 3 -2 6 -13 5 -11 0 -14 -3 -6 -6z"/>
<path d="M1821 1044 c0 -11 3 -14 6 -6 3 7 2 16 -1 19 -3 4 -6 -2 -5 -13z"/>
<path d="M2095 738 c1 -13 6 -21 11 -19 10 3 7 21 -5 34 -4 4 -7 -3 -6 -15z"/>
<path d="M1086 602 c-3 -5 1 -9 9 -9 8 0 12 4 9 9 -3 4 -7 8 -9 8 -2 0 -6 -4
-9 -8z"/>
<path d="M1970 569 c0 -5 5 -7 10 -4 6 3 10 8 10 11 0 2 -4 4 -10 4 -5 0 -10
-5 -10 -11z"/>
<path d="M1132 546 c7 -8 15 -12 17 -11 5 6 -10 25 -20 25 -5 0 -4 -6 3 -14z"/>
<path d="M1860 489 c0 -5 5 -7 10 -4 6 3 10 8 10 11 0 2 -4 4 -10 4 -5 0 -10
-5 -10 -11z"/>
<path d="M1881 477 c-13 -21 -12 -21 5 -5 10 10 16 20 13 22 -3 3 -11 -5 -18
-17z"/>
<path d="M1266 443 c-4 -9 -3 -20 1 -24 4 -4 9 3 9 17 2 28 -1 31 -10 7z"/>
<path d="M1843 453 c4 -3 1 -13 -6 -22 -11 -14 -10 -14 5 -2 16 12 16 31 1 31
-4 0 -3 -3 0 -7z"/>
<path d="M1320 420 c0 -5 5 -10 11 -10 5 0 7 5 4 10 -3 6 -8 10 -11 10 -2 0
-4 -4 -4 -10z"/>
<path d="M1766 403 c-4 -9 -3 -20 1 -24 4 -4 9 3 9 17 2 28 -1 31 -10 7z"/>
<path d="M1736 353 c-6 -14 -5 -15 5 -6 7 7 10 15 7 18 -3 3 -9 -2 -12 -12z"/>
<path d="M1385 331 c-6 -11 13 -26 22 -17 4 3 1 6 -6 6 -7 0 -9 5 -6 10 3 6 4
10 1 10 -3 0 -7 -4 -11 -9z"/>
<path d="M1564 278 c10 -6 22 -6 26 -2 5 5 -3 10 -18 11 -22 1 -24 0 -8 -9z"/>
<path d="M1515 269 c-4 -6 -14 -8 -24 -5 -12 5 -11 2 3 -9 13 -10 23 -12 31
-5 7 6 21 7 31 4 24 -9 16 -1 -13 15 -15 8 -24 8 -28 0z"/>
</g>
</svg>
